<svg xmlns="http://www.w3.org/2000/svg" viewBox="0 0 640 420" role="img" aria-label="Basic education quality assurance documents">
  <defs>
    <linearGradient id="bg" x1="0" y1="0" x2="1" y2="1">
      <stop offset="0" stop-color="#e7f7fd"/>
      <stop offset="1" stop-color="#18a7db"/>
    </linearGradient>
    <linearGradient id="screen" x1="0" y1="0" x2="1" y2="1">
      <stop offset="0" stop-color="#102a6b"/>
      <stop offset="1" stop-color="#00072c"/>
    </linearGradient>
    <filter id="shadow" x="-20%" y="-20%" width="140%" height="140%">
      <feDropShadow dx="0" dy="18" stdDeviation="18" flood-color="#00072c" flood-opacity=".22"/>
    </filter>
  </defs>
  <rect width="640" height="420" rx="24" fill="url(#bg)"/>
  <circle cx="520" cy="80" r="74" fill="#ffffff" opacity=".26"/>
  <circle cx="120" cy="332" r="88" fill="#ffffff" opacity=".22"/>
  <g filter="url(#shadow)">
    <rect x="114" y="78" width="360" height="230" rx="22" fill="url(#screen)"/>
    <rect x="142" y="112" width="112" height="14" rx="7" fill="#ffffff" opacity=".9"/>
    <rect x="142" y="154" width="276" height="12" rx="6" fill="#7fcfed" opacity=".72"/>
    <rect x="142" y="184" width="246" height="12" rx="6" fill="#7fcfed" opacity=".58"/>
    <rect x="142" y="214" width="196" height="12" rx="6" fill="#7fcfed" opacity=".58"/>
    <rect x="354" y="246" width="72" height="34" rx="17" fill="#f4b63d"/>
  </g>
  <g filter="url(#shadow)">
    <path d="M244 330h104l18 40H226z" fill="#07184a"/>
    <rect x="214" y="368" width="182" height="18" rx="9" fill="#07184a"/>
  </g>
  <g transform="translate(454 198)" filter="url(#shadow)">
    <rect width="98" height="126" rx="18" fill="#ffffff"/>
    <rect x="22" y="24" width="54" height="10" rx="5" fill="#d21f32"/>
    <rect x="22" y="50" width="54" height="8" rx="4" fill="#cbd6e2"/>
    <rect x="22" y="72" width="42" height="8" rx="4" fill="#cbd6e2"/>
    <circle cx="49" cy="102" r="12" fill="#18a7db"/>
  </g>
</svg>
